# xmcd
#
# Track frame offsets:
#	150
#	19900
#	41432
#	56235
#	74695
#	94717
#	118975
#	133060
#	147617
#	164920
#
# Disc length: 2529 seconds
#
# Revision: 7
# Processed by: cddbd v1.5.2PL0 Copyright (c) Steve Scherf et al.
# Submitted via: CDmax 2.0
#
DISCID=a409df0a
DTITLE=Various Artist - Blues Guitar Greats
DYEAR=1996
DGENRE=Blues
TTITLE0=George Thorogood and the Destroyers - Move It On Over
TTITLE1=Little Jimmy King - King's Crosstown Shuffle
TTITLE2=Ronnie Earl and the Broadcasters - Robert Nighthawk Stomp
TTITLE3=Johnny Copeland - Don't Stop By the Creek, Son
TTITLE4=Duke Robillard - Too Hot To Handle
TTITLE5=Walter "Wolfman" Washington - One Way or Another
TTITLE6=Preston Shannon Band - Trouble
TTITLE7=Clarence "Gatemouth" Brown - Alligator Boogaloo
TTITLE8=Barbara Lynn - The Payback
TTITLE9=Smokin' Joe Kubek Band featuring Bnois King - Just for a Little While
EXTD=LABEL =Rounder Records Corp.\nID =edcd7016\nUPC =712136-7016-20\nCOPY
EXTD=RIGHT =1996
EXTT0=
EXTT1=
EXTT2=
EXTT3=
EXTT4=
EXTT5=
EXTT6=
EXTT7=
EXTT8=
EXTT9=
PLAYORDER=
